<?xml version="1.0" standalone="no"?>
<!DOCTYPE svg PUBLIC "-//W3C//DTD SVG 20010904//EN"
 "http://www.w3.org/TR/2001/REC-SVG-20010904/DTD/svg10.dtd">
<svg version="1.0" xmlns="http://www.w3.org/2000/svg"
 width="16.000000pt" height="16.000000pt" viewBox="0 0 16.000000 16.000000"
 preserveAspectRatio="xMidYMid meet">
<metadata>
Created by potrace 1.11, written by Peter Selinger 2001-2013
</metadata>
<g transform="translate(0.000000,16.000000) scale(0.001584,-0.001584)"
fill="#000000" stroke="none">
<path d="M4769 10096 c-2 -2 -49 -7 -104 -10 -55 -4 -113 -9 -130 -11 -16 -2
-52 -6 -80 -9 -27 -3 -63 -8 -80 -10 -16 -3 -55 -8 -85 -11 -30 -4 -57 -8 -60
-10 -3 -2 -30 -6 -60 -10 -30 -4 -58 -9 -61 -11 -4 -2 -24 -6 -45 -9 -22 -4
-47 -8 -56 -11 -10 -3 -30 -7 -45 -10 -16 -3 -95 -22 -178 -44 -577 -150
-1091 -383 -1580 -718 -102 -69 -303 -217 -315 -231 -3 -3 -27 -24 -55 -46
-27 -21 -52 -42 -55 -45 -3 -3 -41 -36 -85 -74 -214 -187 -498 -495 -689 -751
-84 -111 -246 -349 -246 -360 0 -4 -11 -21 -24 -38 -76 -103 -280 -508 -373
-742 -55 -135 -146 -397 -158 -454 -2 -9 -13 -47 -25 -86 -20 -68 -90 -370
-95 -410 -1 -11 -5 -33 -8 -50 -4 -16 -9 -43 -11 -60 -7 -49 -18 -119 -22
-138 -2 -10 -6 -48 -10 -85 -3 -36 -7 -74 -9 -84 -26 -136 -26 -934 0 -1038 2
-8 6 -45 10 -82 3 -37 8 -77 10 -90 2 -13 9 -57 15 -98 20 -128 45 -262 65
-340 8 -30 17 -70 20 -89 3 -19 8 -38 10 -42 3 -4 16 -49 30 -101 88 -337 255
-745 448 -1093 33 -60 73 -129 89 -152 15 -23 28 -44 28 -47 0 -7 181 -279
190 -286 3 -3 21 -27 40 -54 29 -42 184 -241 200 -256 3 -3 32 -36 65 -75 236
-277 606 -607 933 -834 91 -63 338 -221 346 -221 1 0 49 -26 107 -58 369 -205
796 -370 1234 -477 141 -35 117 -30 325 -66 156 -27 148 -26 226 -34 38 -4 78
-9 89 -11 137 -26 969 -26 1100 0 11 2 47 7 80 10 33 4 71 9 85 11 186 30 268
44 300 51 14 3 32 7 40 9 286 57 668 181 980 316 122 53 443 220 565 294 469
285 867 621 1231 1040 146 168 386 497 472 646 11 19 49 84 84 144 79 135 176
328 249 495 30 69 54 127 55 130 0 3 5 16 11 30 114 275 237 730 289 1070 3
19 7 46 9 60 3 14 7 56 11 95 4 38 8 73 10 76 26 45 26 940 0 1099 -2 14 -7
50 -11 80 -15 130 -41 294 -60 375 -7 33 -24 105 -36 160 -28 124 -22 99 -62
240 -116 398 -273 764 -485 1130 -41 72 -88 149 -103 172 -16 23 -29 46 -29
51 0 6 -3 12 -8 14 -4 2 -32 39 -61 83 -163 241 -356 471 -600 716 -201 200
-349 330 -551 480 -127 95 -325 228 -427 286 -35 21 -90 53 -121 71 -92 53
-360 185 -457 226 -49 21 -103 44 -120 51 -42 19 -218 83 -290 107 -75 25
-215 68 -235 73 -8 2 -53 13 -100 25 -110 28 -93 24 -257 59 -77 16 -165 32
-195 36 -29 4 -55 8 -58 10 -3 2 -34 6 -69 10 -34 4 -70 8 -80 10 -10 2 -54 6
-97 10 -43 4 -90 9 -104 12 -27 5 -685 14 -691 9z"/>
</g>
</svg>
